<svg width="30" height="50" viewBox="0 0 30 50" fill="none" xmlns="http://www.w3.org/2000/svg">
    <g clip-path="url(#clip0)">
        <path fill-rule="evenodd" clip-rule="evenodd" d="M29.6296 15.625C29.6296 12.1563 26.9926 9.37502 23.7037 9.37502C22.4019 9.37139 21.1355 9.82155 20.1013 10.6555C19.0672 11.4894 18.3233 12.6604 17.9854 13.9863C17.6474 15.3122 17.7344 16.7187 18.2327 17.9871C18.731 19.2555 19.6127 20.3147 20.7407 21V21.9375C20.6815 23.5625 20.0593 25 18.8741 26.25C17.6889 27.5 16.3259 28.1563 14.7852 28.2188C12.3259 28.2813 10.4 28.7188 8.85926 29.625V14.75C9.9873 14.0647 10.869 13.0055 11.3673 11.7371C11.8656 10.4687 11.9526 9.0622 11.6146 7.7363C11.2767 6.41039 10.5328 5.23942 9.49866 4.40548C8.46451 3.57155 7.19808 3.12139 5.8963 3.12502C2.60741 3.12502 0 5.90627 0 9.37502C0.00624219 10.4657 0.283015 11.5357 0.802812 12.4787C1.32261 13.4216 2.06733 14.2047 2.96296 14.75V35.25C1.21481 36.3438 0 38.3438 0 40.625C0 44.0938 2.63704 46.875 5.92593 46.875C9.21482 46.875 11.8519 44.0938 11.8519 40.625C11.8519 38.9688 11.2593 37.5 10.2815 36.375C10.5481 36.1875 11.7037 35.0938 12.0296 34.9063C12.7704 34.5625 13.6889 34.375 14.8148 34.375C17.9259 34.2188 20.5926 32.9688 22.963 30.4688C25.3333 27.9688 26.5185 24.2813 26.6667 21.0313H26.6074C28.4148 19.9063 29.6296 17.9063 29.6296 15.625ZM5.92593 5.62502C7.88148 5.62502 9.48148 7.34377 9.48148 9.37502C9.48148 11.4063 7.85185 13.125 5.92593 13.125C4 13.125 2.37037 11.4063 2.37037 9.37502C2.37037 7.34377 4 5.62502 5.92593 5.62502ZM5.92593 44.4063C3.97037 44.4063 2.37037 42.6875 2.37037 40.6563C2.37037 38.625 4 36.9063 5.92593 36.9063C7.85185 36.9063 9.48148 38.625 9.48148 40.6563C9.48148 42.6875 7.85185 44.4063 5.92593 44.4063ZM23.7037 19.4063C21.7481 19.4063 20.1481 17.6875 20.1481 15.6563C20.1481 13.625 21.7778 11.9063 23.7037 11.9063C25.6296 11.9063 27.2593 13.625 27.2593 15.6563C27.2593 17.6875 25.6296 19.4063 23.7037 19.4063V19.4063Z" fill="#1B344B"/>
    </g>
    <defs>
        <clipPath id="clip0">
            <rect width="29.6296" height="50" fill="white"/>
        </clipPath>
    </defs>
</svg>
