<svg width="48" height="48" viewBox="0 0 48 48" fill="none" xmlns="http://www.w3.org/2000/svg">
<path fill-rule="evenodd" clip-rule="evenodd" d="M10.5 9V39H7.5V9H10.5Z" fill="#1B344B"/>
<path fill-rule="evenodd" clip-rule="evenodd" d="M9 3.5C7.61929 3.5 6.5 4.61929 6.5 6C6.5 7.38071 7.61929 8.5 9 8.5C10.3807 8.5 11.5 7.38071 11.5 6C11.5 4.61929 10.3807 3.5 9 3.5ZM3.5 6C3.5 2.96243 5.96243 0.5 9 0.5C12.0376 0.5 14.5 2.96243 14.5 6C14.5 9.03757 12.0376 11.5 9 11.5C5.96243 11.5 3.5 9.03757 3.5 6Z" fill="#1B344B"/>
<path fill-rule="evenodd" clip-rule="evenodd" d="M39 3.5C37.6193 3.5 36.5 4.61929 36.5 6C36.5 7.38071 37.6193 8.5 39 8.5C40.3807 8.5 41.5 7.38071 41.5 6C41.5 4.61929 40.3807 3.5 39 3.5ZM33.5 6C33.5 2.96243 35.9624 0.5 39 0.5C42.0376 0.5 44.5 2.96243 44.5 6C44.5 9.03757 42.0376 11.5 39 11.5C35.9624 11.5 33.5 9.03757 33.5 6Z" fill="#1B344B"/>
<path fill-rule="evenodd" clip-rule="evenodd" d="M9 39.5C7.61929 39.5 6.5 40.6193 6.5 42C6.5 43.3807 7.61929 44.5 9 44.5C10.3807 44.5 11.5 43.3807 11.5 42C11.5 40.6193 10.3807 39.5 9 39.5ZM3.5 42C3.5 38.9624 5.96243 36.5 9 36.5C12.0376 36.5 14.5 38.9624 14.5 42C14.5 45.0376 12.0376 47.5 9 47.5C5.96243 47.5 3.5 45.0376 3.5 42Z" fill="#1B344B"/>
<path fill-rule="evenodd" clip-rule="evenodd" d="M37.5 16.4342V9H40.5V16.4342C40.5 20.9507 36.9652 24.7171 32.4823 24.7171H15.5177C12.8033 24.7171 10.5 27.0265 10.5 30H7.5C7.5 25.4835 11.0348 21.7171 15.5177 21.7171H32.4823C35.1967 21.7171 37.5 19.4077 37.5 16.4342Z" fill="#1B344B"/>
</svg>
